<svg xmlns="http://www.w3.org/2000/svg" viewBox="0 0 24 24"><path fill="#00C4CC" d="M12 0C5.373 0 0 5.373 0 12s5.373 12 12 12 12-5.373 12-12S18.627 0 12 0zm4.92 7.792c.06.06.06.156 0 .216l-1.716 1.716a4.485 4.485 0 0 1 .696 2.4c0 2.484-2.016 4.5-4.5 4.5a4.485 4.485 0 0 1-2.4-.696l-1.716 1.716a.153.153 0 0 1-.216 0l-.576-.576a.153.153 0 0 1 0-.216l1.716-1.716a4.485 4.485 0 0 1-.696-2.4c0-2.484 2.016-4.5 4.5-4.5 .876 0 1.692.252 2.4.696l1.716-1.716a.153.153 0 0 1 .216 0l.576.576zm-5.544 7.332c1.656 0 3-1.344 3-3s-1.344-3-3-3-3 1.344-3 3 1.344 3 3 3z"/></svg>
