<svg xmlns="http://www.w3.org/2000/svg" viewBox="0 0 24 24"><path fill="#5059C9" d="M20.625 6.75h-5.25v3.75h5.625c.207 0 .375-.168.375-.375v-3c0-.207-.168-.375-.375-.375h-.375zM16.5 3.75a1.875 1.875 0 1 0 0-3.75 1.875 1.875 0 0 0 0 3.75z"/><path fill="#7B83EB" d="M13.875 4.5a2.625 2.625 0 1 0 0-5.25 2.625 2.625 0 0 0 0 5.25zM15.375 6H3.375C2.34 6 1.5 6.84 1.5 7.875v7.5c0 2.692 2.183 4.875 4.875 4.875h5.25c2.692 0 4.875-2.183 4.875-4.875v-8.25c0-.414-.336-.75-.75-.75h-.375z"/><path fill="#5059C9" d="M21 11.25h-5.625v6c0 .675-.137 1.32-.375 1.912V19.5h5.625c.207 0 .375-.168.375-.375V11.625c0-.207-.168-.375-.375-.375z"/></svg>
