<svg xmlns="http://www.w3.org/2000/svg" viewBox="0 0 24 24"><path fill="#0078D4" d="M19.453 10.564c-.204-2.656-2.196-4.848-4.828-5.268a5.51 5.51 0 0 0-4.636 1.548 5.505 5.505 0 0 0-1.74 3.456 4.626 4.626 0 0 0-3.124 1.836A4.606 4.606 0 0 0 4.5 15c0 1.2.468 2.34 1.32 3.192A4.498 4.498 0 0 0 9 19.5h9.75c1.32 0 2.568-.516 3.504-1.452A4.922 4.922 0 0 0 23.7 14.58c0-2.1-1.344-3.948-3.324-4.56a4.867 4.867 0 0 0-.924-.456z"/><path fill="#0364B8" d="M9 19.5h9.75c1.32 0 2.568-.516 3.504-1.452A4.922 4.922 0 0 0 23.7 14.58c0-2.1-1.344-3.948-3.324-4.56l-5.856 4.26L9 19.5z"/></svg>
