<svg xmlns="http://www.w3.org/2000/svg" viewBox="0 0 24 24"><path fill="#0078D4" d="M24 7.387v10.478c0 .23-.08.424-.238.576-.158.154-.352.23-.58.23h-8.547v-6.959l1.6 1.229c.102.086.221.127.357.127.136 0 .255-.043.357-.127l6.86-5.266c.092-.07.14-.143.143-.219.004-.078-.034-.143-.115-.195a.672.672 0 0 0-.357-.1H14.59V5.453h8.592c.228 0 .422.076.58.228.158.153.238.345.238.574v1.132zM14.635 8.328v11.127H.756a.73.73 0 0 1-.533-.223.73.73 0 0 1-.223-.533V5.301c0-.209.074-.387.223-.535A.73.73 0 0 1 .756 4.54h13.88v3.788zm-8.27 7.665c.7 0 1.287-.237 1.76-.71.474-.475.711-1.063.711-1.766 0-.703-.237-1.293-.71-1.768-.474-.475-1.061-.713-1.761-.713-.7 0-1.287.238-1.76.713-.474.475-.711 1.065-.711 1.768 0 .703.237 1.291.71 1.765.474.474 1.061.711 1.761.711z"/></svg>
