<svg xmlns="http://www.w3.org/2000/svg" viewBox="0 0 24 24"><path fill="#00A1E0" d="M10.006 5.415a4.195 4.195 0 0 1 3.045-1.306c1.56 0 2.954.857 3.68 2.124a4.647 4.647 0 0 1 1.911-.41c2.573 0 4.658 2.086 4.658 4.66 0 2.573-2.085 4.658-4.658 4.658-.265 0-.524-.023-.777-.066a3.767 3.767 0 0 1-3.407 2.166 3.75 3.75 0 0 1-1.89-.508 4.546 4.546 0 0 1-4.161 2.716c-2.197 0-4.032-1.558-4.46-3.63a4.093 4.093 0 0 1-.647.052c-2.267 0-4.105-1.838-4.105-4.106 0-1.603.92-2.993 2.26-3.668a4.467 4.467 0 0 1-.183-1.262c0-2.468 2.001-4.47 4.47-4.47a4.459 4.459 0 0 1 4.264 3.05z"/></svg>
